<?xml version="1.0" encoding="UTF-8"?>
<svg xmlns="http://www.w3.org/2000/svg" xmlns:xlink="http://www.w3.org/1999/xlink" width="25px" height="25px" viewBox="0 0 25 25" version="1.1">
<g id="surface1">
<path style=" stroke:none;fill-rule:evenodd;fill:rgb(0%,0%,0%);fill-opacity:1;" d="M 8.519531 1.167969 L 9.476562 0.863281 C 10.222656 0.660156 10.988281 0.515625 11.664062 0.476562 C 12.304688 0.4375 12.433594 0.433594 13.070312 0.457031 C 14.132812 0.5 15.34375 0.648438 16.363281 0.941406 L 17.277344 1.265625 C 17.371094 1.304688 17.46875 1.34375 17.558594 1.378906 C 17.777344 1.464844 17.902344 1.546875 18.109375 1.644531 C 18.148438 1.664062 18.15625 1.667969 18.195312 1.683594 L 18.949219 2.109375 C 19.035156 2.160156 19.128906 2.230469 19.203125 2.28125 C 20.605469 3.246094 20.988281 3.738281 22.003906 4.976562 C 22.894531 6.058594 23.582031 7.316406 24.035156 8.679688 L 24.15625 9.054688 C 24.574219 10.464844 24.746094 11.976562 24.632812 13.511719 C 24.613281 13.734375 24.34375 15.84375 24.09375 16.035156 L 24.414062 14.613281 C 24.429688 14.519531 24.445312 14.417969 24.460938 14.320312 C 24.488281 14.125 24.5 13.929688 24.523438 13.722656 C 24.582031 13.21875 24.625 11.648438 24.480469 11.1875 L 24.519531 12.871094 L 24.347656 14.449219 C 24.238281 15.148438 24.0625 15.742188 23.832031 16.398438 C 23.714844 16.738281 23.308594 17.699219 23.128906 17.988281 C 23.074219 18.074219 23.054688 18.105469 23.011719 18.191406 C 22.964844 18.277344 22.9375 18.335938 22.894531 18.421875 C 22.71875 18.753906 22.152344 19.539062 21.933594 19.824219 C 21.679688 20.148438 21.203125 20.667969 20.90625 20.957031 C 19.382812 22.429688 17.566406 23.425781 15.28125 24.027344 C 14.128906 24.328125 12.949219 24.347656 11.804688 24.308594 C 11.441406 24.296875 11.128906 24.238281 10.777344 24.203125 C 10.582031 24.1875 10.441406 24.140625 10.269531 24.109375 C 9.457031 23.96875 8.394531 23.617188 7.636719 23.28125 C 7.5625 23.246094 7.503906 23.210938 7.429688 23.171875 C 7.347656 23.128906 7.308594 23.105469 7.21875 23.070312 C 6.96875 22.980469 6.871094 22.882812 6.574219 22.730469 L 5.742188 22.203125 C 4.523438 21.347656 3.703125 20.484375 2.839844 19.296875 C 2.359375 18.632812 1.933594 17.863281 1.632812 17.0625 L 1.730469 17.03125 C 1.980469 17.558594 2.394531 18.328125 2.535156 18.5625 C 2.953125 19.242188 3.769531 20.304688 4.347656 20.820312 C 5.316406 21.683594 5.539062 21.886719 6.664062 22.5625 C 6.742188 22.613281 6.753906 22.632812 6.839844 22.683594 L 8.042969 23.257812 L 9.316406 23.710938 C 10.164062 23.957031 11.613281 24.210938 12.53125 24.183594 C 12.796875 24.175781 13.292969 24.203125 13.542969 24.121094 L 12.6875 24.136719 C 12.410156 24.132812 12.144531 24.109375 11.894531 24.089844 C 11.324219 24.050781 10.558594 23.921875 10 23.765625 C 9.496094 23.621094 8.398438 23.285156 7.921875 23.035156 C 7.855469 23 7.824219 22.980469 7.753906 22.953125 C 7.246094 22.757812 6.78125 22.449219 6.3125 22.167969 C 5.691406 21.800781 5.097656 21.253906 4.574219 20.789062 C 4.214844 20.476562 3.171875 19.316406 3.058594 18.980469 L 3.835938 19.921875 C 4.285156 20.460938 4.980469 21.066406 5.527344 21.5 C 5.683594 21.621094 6.300781 22.078125 6.445312 22.121094 C 6.46875 22.074219 6.378906 22.105469 6.53125 22.058594 C 6.292969 21.871094 6.039062 21.722656 5.804688 21.523438 C 5.65625 21.398438 5.769531 21.445312 5.46875 21.203125 C 4.128906 20.140625 2.976562 18.601562 2.242188 16.886719 L 2.300781 16.871094 C 2.5 17.351562 2.722656 17.78125 2.976562 18.21875 C 3.222656 18.636719 3.890625 19.613281 4.226562 19.933594 L 4.320312 20.007812 C 4.246094 19.789062 4.097656 19.730469 4.023438 19.511719 L 4.085938 19.492188 C 4.136719 19.578125 4.886719 20.378906 5.003906 20.417969 L 4.316406 19.65625 C 4.179688 19.492188 3.777344 19.007812 3.699219 18.8125 C 3.828125 18.855469 3.875 18.980469 3.96875 19.105469 C 4.488281 19.773438 5.09375 20.390625 5.75 20.914062 L 5.886719 21.007812 C 5.886719 20.914062 5.824219 20.933594 5.980469 20.980469 C 5.882812 20.828125 5.726562 20.804688 5.628906 20.636719 L 6.113281 20.984375 C 6.515625 21.273438 7.117188 21.636719 7.554688 21.863281 L 8.875 22.425781 C 9.542969 22.660156 10.140625 22.816406 10.859375 22.929688 C 12.042969 23.117188 13.496094 23.144531 14.734375 22.84375 C 15.238281 22.722656 15.710938 22.566406 16.222656 22.375 L 16.910156 22.097656 C 17.15625 21.984375 17.328125 21.917969 17.5625 21.804688 C 19.101562 21.046875 20.3125 19.980469 21.25 18.59375 C 21.367188 18.421875 22.34375 16.84375 22.28125 16.570312 C 22.191406 16.683594 22.171875 16.816406 22.097656 16.949219 C 22.03125 17.078125 21.980469 17.175781 21.914062 17.304688 C 21.011719 19.039062 19.5 20.648438 17.769531 21.59375 C 15.941406 22.59375 13.996094 23.117188 11.882812 22.992188 C 11.574219 22.972656 11.285156 22.953125 11.003906 22.90625 C 10.863281 22.882812 10.738281 22.867188 10.585938 22.839844 C 10.308594 22.796875 10.273438 22.804688 10.210938 22.707031 C 10.898438 22.90625 12.355469 22.914062 13.054688 22.871094 C 14.074219 22.8125 15.242188 22.496094 16.359375 22.050781 C 18.140625 21.339844 19.445312 20.234375 20.628906 18.773438 C 20.703125 18.683594 20.753906 18.613281 20.816406 18.527344 L 21.175781 17.976562 C 21.261719 17.855469 21.273438 17.8125 21.339844 17.691406 C 21.402344 17.578125 21.453125 17.535156 21.515625 17.414062 C 22.613281 15.292969 22.972656 13.09375 22.550781 10.65625 C 22.355469 9.519531 21.929688 8.511719 21.371094 7.511719 C 21.128906 7.078125 20.824219 6.652344 20.527344 6.289062 C 19.511719 5.054688 18.042969 3.890625 16.566406 3.34375 C 16.175781 3.199219 16.070312 3.144531 15.625 3.015625 C 14.132812 2.582031 12.191406 2.410156 10.621094 2.832031 C 9.828125 3.046875 9.710938 3.082031 8.945312 3.363281 C 8.46875 3.535156 7.917969 3.847656 7.539062 4.082031 C 4.859375 5.722656 3.835938 8.203125 3.472656 8.554688 C 3.320312 8.703125 3.355469 8.503906 3.378906 8.394531 C 3.402344 8.273438 3.449219 8.203125 3.445312 8.082031 L 3.132812 8.738281 C 2.867188 9.453125 2.648438 9.964844 2.398438 10.761719 C 2.273438 11.160156 2.085938 12.164062 2.03125 12.605469 C 1.980469 13.042969 1.992188 12.78125 1.949219 12.960938 C 1.9375 13.015625 1.921875 13.664062 1.925781 13.742188 C 1.78125 13.746094 1.757812 13.65625 1.6875 13.433594 C 1.5625 13.027344 1.707031 13.121094 1.539062 13.0625 C 1.546875 13.167969 1.527344 13.203125 1.503906 13.285156 C 1.40625 13.292969 1.382812 13.277344 1.316406 13.238281 L 1.476562 14.617188 C 1.554688 15.34375 1.488281 15.308594 1.5 15.449219 L 1.566406 15.851562 L 1.527344 15.867188 L 1.28125 15.441406 C 1.339844 15.640625 1.28125 15.511719 1.289062 15.679688 L 0.914062 14.824219 C 0.910156 14.832031 0.910156 14.84375 0.910156 14.851562 L 0.9375 15.210938 C 0.980469 15.558594 0.945312 15.484375 0.890625 15.527344 C 0.867188 15.503906 0.847656 15.46875 0.824219 15.425781 L 0.585938 14.667969 C 0.511719 14.351562 0.457031 14.046875 0.4375 13.917969 C 0.242188 12.53125 0.339844 11.730469 0.507812 10.414062 C 0.609375 9.601562 1.117188 8.214844 1.527344 7.429688 L 2.144531 6.347656 C 2.46875 5.761719 3.238281 4.808594 3.683594 4.324219 C 4.480469 3.453125 5.960938 2.347656 7.027344 1.835938 C 7.132812 1.785156 7.292969 1.730469 7.394531 1.65625 C 7.539062 1.550781 7.515625 1.570312 7.71875 1.480469 C 7.96875 1.371094 8.238281 1.265625 8.519531 1.167969 "/>
<path style=" stroke:none;fill-rule:nonzero;fill:rgb(0%,0%,0%);fill-opacity:1;" d="M 11.90625 12.597656 C 13.8125 15.1875 15.722656 17.777344 17.628906 20.371094 C 16.851562 19.0625 16.066406 17.761719 15.273438 16.464844 C 15.863281 17.230469 16.457031 17.992188 17.046875 18.753906 C 16.570312 17.945312 16.085938 17.144531 15.59375 16.34375 C 16.527344 17.378906 17.460938 18.417969 18.390625 19.453125 C 17.707031 18.523438 17.011719 17.597656 16.3125 16.675781 C 17.1875 17.570312 18.058594 18.464844 18.929688 19.359375 C 17.214844 17.039062 15.140625 14.160156 13.210938 12.078125 C 11.292969 9.492188 9.378906 6.90625 7.464844 4.320312 C 8.246094 5.625 9.039062 6.921875 9.835938 8.214844 C 9.238281 7.453125 8.640625 6.695312 8.042969 5.933594 C 8.527344 6.738281 9.019531 7.539062 9.511719 8.335938 C 8.574219 7.304688 7.632812 6.273438 6.695312 5.242188 C 7.382812 6.167969 8.078125 7.089844 8.777344 8.011719 C 7.902344 7.121094 7.03125 6.226562 6.15625 5.335938 C 7.867188 7.640625 9.972656 10.550781 11.90625 12.597656 "/>
<path style=" stroke:none;fill-rule:nonzero;fill:rgb(0%,0%,0%);fill-opacity:1;" d="M 12.117188 11.808594 C 10.1875 14.382812 8.257812 16.957031 6.328125 19.53125 C 7.355469 18.414062 8.375 17.28125 9.386719 16.148438 C 8.828125 16.933594 8.265625 17.722656 7.707031 18.507812 C 8.34375 17.820312 8.972656 17.121094 9.59375 16.421875 C 8.871094 17.613281 8.148438 18.804688 7.425781 19.996094 C 8.121094 19.070312 8.804688 18.140625 9.484375 17.207031 C 8.882812 18.300781 8.277344 19.390625 7.671875 20.484375 C 9.398438 18.171875 11.554688 15.355469 12.988281 12.90625 C 14.914062 10.328125 16.835938 7.746094 18.757812 5.164062 C 17.734375 6.289062 16.722656 7.421875 15.714844 8.5625 C 16.269531 7.769531 16.824219 6.976562 17.382812 6.183594 C 16.75 6.878906 16.125 7.582031 15.503906 8.285156 C 16.222656 7.089844 16.9375 5.890625 17.652344 4.695312 C 16.964844 5.621094 16.285156 6.554688 15.605469 7.488281 C 16.207031 6.394531 16.808594 5.300781 17.410156 4.207031 C 15.695312 6.507812 13.519531 9.367188 12.117188 11.808594 "/>
</g>
</svg>
